<?xml version="1.0" encoding="utf-8" standalone="no"?>
<!DOCTYPE svg PUBLIC "-//W3C//DTD SVG 1.1//EN"
  "http://www.w3.org/Graphics/SVG/1.1/DTD/svg11.dtd">
<!-- Created with matplotlib (http://matplotlib.org/) -->
<svg height="319pt" version="1.1" viewBox="0 0 432 319" width="432pt" xmlns="http://www.w3.org/2000/svg" xmlns:xlink="http://www.w3.org/1999/xlink">
 <defs>
  <style type="text/css">
*{stroke-linecap:butt;stroke-linejoin:round;}
  </style>
 </defs>
 <g id="figure_1">
  <g id="patch_1">
   <path d="M 0 319.081813 
L 432.479062 319.081813 
L 432.479062 0 
L 0 0 
z
" style="fill:#ffffff;"/>
  </g>
  <g id="axes_1">
   <g id="patch_2">
    <path d="M 48.839531 241.277813 
L 383.639531 241.277813 
L 383.639531 23.837813 
L 48.839531 23.837813 
z
" style="fill:#e5e5e5;"/>
   </g>
   <g id="matplotlib.axis_1">
    <g id="xtick_1">
     <g id="line2d_1">
      <path clip-path="url(#p5b67381736)" d="M 48.839531 241.277813 
L 48.839531 23.837813 
" style="fill:none;stroke:#ffffff;stroke-linecap:round;"/>
     </g>
     <g id="text_1">
      <!-- 0 -->
      <defs>
       <path d="M 31.78125 66.40625 
Q 24.171875 66.40625 20.328125 58.90625 
Q 16.5 51.421875 16.5 36.375 
Q 16.5 21.390625 20.328125 13.890625 
Q 24.171875 6.390625 31.78125 6.390625 
Q 39.453125 6.390625 43.28125 13.890625 
Q 47.125 21.390625 47.125 36.375 
Q 47.125 51.421875 43.28125 58.90625 
Q 39.453125 66.40625 31.78125 66.40625 
z
M 31.78125 74.21875 
Q 44.046875 74.21875 50.515625 64.515625 
Q 56.984375 54.828125 56.984375 36.375 
Q 56.984375 17.96875 50.515625 8.265625 
Q 44.046875 -1.421875 31.78125 -1.421875 
Q 19.53125 -1.421875 13.0625 8.265625 
Q 6.59375 17.96875 6.59375 36.375 
Q 6.59375 54.828125 13.0625 64.515625 
Q 19.53125 74.21875 31.78125 74.21875 
z
" id="DejaVuSans-30"/>
      </defs>
      <g style="fill:#555555;" transform="translate(45.340156 259.136094)scale(0.11 -0.11)">
       <use xlink:href="#DejaVuSans-30"/>
      </g>
     </g>
    </g>
    <g id="xtick_2">
     <g id="line2d_2">
      <path clip-path="url(#p5b67381736)" d="M 110.839531 241.277813 
L 110.839531 23.837813 
" style="fill:none;stroke:#ffffff;stroke-linecap:round;"/>
     </g>
     <g id="text_2">
      <!-- 10 -->
      <defs>
       <path d="M 12.40625 8.296875 
L 28.515625 8.296875 
L 28.515625 63.921875 
L 10.984375 60.40625 
L 10.984375 69.390625 
L 28.421875 72.90625 
L 38.28125 72.90625 
L 38.28125 8.296875 
L 54.390625 8.296875 
L 54.390625 0 
L 12.40625 0 
z
" id="DejaVuSans-31"/>
      </defs>
      <g style="fill:#555555;" transform="translate(103.840781 259.136094)scale(0.11 -0.11)">
       <use xlink:href="#DejaVuSans-31"/>
       <use x="63.623047" xlink:href="#DejaVuSans-30"/>
      </g>
     </g>
    </g>
    <g id="xtick_3">
     <g id="line2d_3">
      <path clip-path="url(#p5b67381736)" d="M 172.839531 241.277813 
L 172.839531 23.837813 
" style="fill:none;stroke:#ffffff;stroke-linecap:round;"/>
     </g>
     <g id="text_3">
      <!-- 20 -->
      <defs>
       <path d="M 19.1875 8.296875 
L 53.609375 8.296875 
L 53.609375 0 
L 7.328125 0 
L 7.328125 8.296875 
Q 12.9375 14.109375 22.625 23.890625 
Q 32.328125 33.6875 34.8125 36.53125 
Q 39.546875 41.84375 41.421875 45.53125 
Q 43.3125 49.21875 43.3125 52.78125 
Q 43.3125 58.59375 39.234375 62.25 
Q 35.15625 65.921875 28.609375 65.921875 
Q 23.96875 65.921875 18.8125 64.3125 
Q 13.671875 62.703125 7.8125 59.421875 
L 7.8125 69.390625 
Q 13.765625 71.78125 18.9375 73 
Q 24.125 74.21875 28.421875 74.21875 
Q 39.75 74.21875 46.484375 68.546875 
Q 53.21875 62.890625 53.21875 53.421875 
Q 53.21875 48.921875 51.53125 44.890625 
Q 49.859375 40.875 45.40625 35.40625 
Q 44.1875 33.984375 37.640625 27.21875 
Q 31.109375 20.453125 19.1875 8.296875 
z
" id="DejaVuSans-32"/>
      </defs>
      <g style="fill:#555555;" transform="translate(165.840781 259.136094)scale(0.11 -0.11)">
       <use xlink:href="#DejaVuSans-32"/>
       <use x="63.623047" xlink:href="#DejaVuSans-30"/>
      </g>
     </g>
    </g>
    <g id="xtick_4">
     <g id="line2d_4">
      <path clip-path="url(#p5b67381736)" d="M 234.839531 241.277813 
L 234.839531 23.837813 
" style="fill:none;stroke:#ffffff;stroke-linecap:round;"/>
     </g>
     <g id="text_4">
      <!-- 30 -->
      <defs>
       <path d="M 40.578125 39.3125 
Q 47.65625 37.796875 51.625 33 
Q 55.609375 28.21875 55.609375 21.1875 
Q 55.609375 10.40625 48.1875 4.484375 
Q 40.765625 -1.421875 27.09375 -1.421875 
Q 22.515625 -1.421875 17.65625 -0.515625 
Q 12.796875 0.390625 7.625 2.203125 
L 7.625 11.71875 
Q 11.71875 9.328125 16.59375 8.109375 
Q 21.484375 6.890625 26.8125 6.890625 
Q 36.078125 6.890625 40.9375 10.546875 
Q 45.796875 14.203125 45.796875 21.1875 
Q 45.796875 27.640625 41.28125 31.265625 
Q 36.765625 34.90625 28.71875 34.90625 
L 20.21875 34.90625 
L 20.21875 43.015625 
L 29.109375 43.015625 
Q 36.375 43.015625 40.234375 45.921875 
Q 44.09375 48.828125 44.09375 54.296875 
Q 44.09375 59.90625 40.109375 62.90625 
Q 36.140625 65.921875 28.71875 65.921875 
Q 24.65625 65.921875 20.015625 65.03125 
Q 15.375 64.15625 9.8125 62.3125 
L 9.8125 71.09375 
Q 15.4375 72.65625 20.34375 73.4375 
Q 25.25 74.21875 29.59375 74.21875 
Q 40.828125 74.21875 47.359375 69.109375 
Q 53.90625 64.015625 53.90625 55.328125 
Q 53.90625 49.265625 50.4375 45.09375 
Q 46.96875 40.921875 40.578125 39.3125 
z
" id="DejaVuSans-33"/>
      </defs>
      <g style="fill:#555555;" transform="translate(227.840781 259.136094)scale(0.11 -0.11)">
       <use xlink:href="#DejaVuSans-33"/>
       <use x="63.623047" xlink:href="#DejaVuSans-30"/>
      </g>
     </g>
    </g>
    <g id="xtick_5">
     <g id="line2d_5">
      <path clip-path="url(#p5b67381736)" d="M 296.839531 241.277813 
L 296.839531 23.837813 
" style="fill:none;stroke:#ffffff;stroke-linecap:round;"/>
     </g>
     <g id="text_5">
      <!-- 40 -->
      <defs>
       <path d="M 37.796875 64.3125 
L 12.890625 25.390625 
L 37.796875 25.390625 
z
M 35.203125 72.90625 
L 47.609375 72.90625 
L 47.609375 25.390625 
L 58.015625 25.390625 
L 58.015625 17.1875 
L 47.609375 17.1875 
L 47.609375 0 
L 37.796875 0 
L 37.796875 17.1875 
L 4.890625 17.1875 
L 4.890625 26.703125 
z
" id="DejaVuSans-34"/>
      </defs>
      <g style="fill:#555555;" transform="translate(289.840781 259.136094)scale(0.11 -0.11)">
       <use xlink:href="#DejaVuSans-34"/>
       <use x="63.623047" xlink:href="#DejaVuSans-30"/>
      </g>
     </g>
    </g>
    <g id="xtick_6">
     <g id="line2d_6">
      <path clip-path="url(#p5b67381736)" d="M 358.839531 241.277813 
L 358.839531 23.837813 
" style="fill:none;stroke:#ffffff;stroke-linecap:round;"/>
     </g>
     <g id="text_6">
      <!-- 50 -->
      <defs>
       <path d="M 10.796875 72.90625 
L 49.515625 72.90625 
L 49.515625 64.59375 
L 19.828125 64.59375 
L 19.828125 46.734375 
Q 21.96875 47.46875 24.109375 47.828125 
Q 26.265625 48.1875 28.421875 48.1875 
Q 40.625 48.1875 47.75 41.5 
Q 54.890625 34.8125 54.890625 23.390625 
Q 54.890625 11.625 47.5625 5.09375 
Q 40.234375 -1.421875 26.90625 -1.421875 
Q 22.3125 -1.421875 17.546875 -0.640625 
Q 12.796875 0.140625 7.71875 1.703125 
L 7.71875 11.625 
Q 12.109375 9.234375 16.796875 8.0625 
Q 21.484375 6.890625 26.703125 6.890625 
Q 35.15625 6.890625 40.078125 11.328125 
Q 45.015625 15.765625 45.015625 23.390625 
Q 45.015625 31 40.078125 35.4375 
Q 35.15625 39.890625 26.703125 39.890625 
Q 22.75 39.890625 18.8125 39.015625 
Q 14.890625 38.140625 10.796875 36.28125 
z
" id="DejaVuSans-35"/>
      </defs>
      <g style="fill:#555555;" transform="translate(351.840781 259.136094)scale(0.11 -0.11)">
       <use xlink:href="#DejaVuSans-35"/>
       <use x="63.623047" xlink:href="#DejaVuSans-30"/>
      </g>
     </g>
    </g>
    <g id="text_7">
     <!-- Test-time adaptation trajectories -->
     <defs>
      <path d="M -0.296875 72.90625 
L 61.375 72.90625 
L 61.375 64.59375 
L 35.5 64.59375 
L 35.5 0 
L 25.59375 0 
L 25.59375 64.59375 
L -0.296875 64.59375 
z
" id="DejaVuSans-54"/>
      <path d="M 56.203125 29.59375 
L 56.203125 25.203125 
L 14.890625 25.203125 
Q 15.484375 15.921875 20.484375 11.0625 
Q 25.484375 6.203125 34.421875 6.203125 
Q 39.59375 6.203125 44.453125 7.46875 
Q 49.3125 8.734375 54.109375 11.28125 
L 54.109375 2.78125 
Q 49.265625 0.734375 44.1875 -0.34375 
Q 39.109375 -1.421875 33.890625 -1.421875 
Q 20.796875 -1.421875 13.15625 6.1875 
Q 5.515625 13.8125 5.515625 26.8125 
Q 5.515625 40.234375 12.765625 48.109375 
Q 20.015625 56 32.328125 56 
Q 43.359375 56 49.78125 48.890625 
Q 56.203125 41.796875 56.203125 29.59375 
z
M 47.21875 32.234375 
Q 47.125 39.59375 43.09375 43.984375 
Q 39.0625 48.390625 32.421875 48.390625 
Q 24.90625 48.390625 20.390625 44.140625 
Q 15.875 39.890625 15.1875 32.171875 
z
" id="DejaVuSans-65"/>
      <path d="M 44.28125 53.078125 
L 44.28125 44.578125 
Q 40.484375 46.53125 36.375 47.5 
Q 32.28125 48.484375 27.875 48.484375 
Q 21.1875 48.484375 17.84375 46.4375 
Q 14.5 44.390625 14.5 40.28125 
Q 14.5 37.15625 16.890625 35.375 
Q 19.28125 33.59375 26.515625 31.984375 
L 29.59375 31.296875 
Q 39.15625 29.25 43.1875 25.515625 
Q 47.21875 21.78125 47.21875 15.09375 
Q 47.21875 7.46875 41.1875 3.015625 
Q 35.15625 -1.421875 24.609375 -1.421875 
Q 20.21875 -1.421875 15.453125 -0.5625 
Q 10.6875 0.296875 5.421875 2 
L 5.421875 11.28125 
Q 10.40625 8.6875 15.234375 7.390625 
Q 20.0625 6.109375 24.8125 6.109375 
Q 31.15625 6.109375 34.5625 8.28125 
Q 37.984375 10.453125 37.984375 14.40625 
Q 37.984375 18.0625 35.515625 20.015625 
Q 33.0625 21.96875 24.703125 23.78125 
L 21.578125 24.515625 
Q 13.234375 26.265625 9.515625 29.90625 
Q 5.8125 33.546875 5.8125 39.890625 
Q 5.8125 47.609375 11.28125 51.796875 
Q 16.75 56 26.8125 56 
Q 31.78125 56 36.171875 55.265625 
Q 40.578125 54.546875 44.28125 53.078125 
z
" id="DejaVuSans-73"/>
      <path d="M 18.3125 70.21875 
L 18.3125 54.6875 
L 36.8125 54.6875 
L 36.8125 47.703125 
L 18.3125 47.703125 
L 18.3125 18.015625 
Q 18.3125 11.328125 20.140625 9.421875 
Q 21.96875 7.515625 27.59375 7.515625 
L 36.8125 7.515625 
L 36.8125 0 
L 27.59375 0 
Q 17.1875 0 13.234375 3.875 
Q 9.28125 7.765625 9.28125 18.015625 
L 9.28125 47.703125 
L 2.6875 47.703125 
L 2.6875 54.6875 
L 9.28125 54.6875 
L 9.28125 70.21875 
z
" id="DejaVuSans-74"/>
      <path d="M 4.890625 31.390625 
L 31.203125 31.390625 
L 31.203125 23.390625 
L 4.890625 23.390625 
z
" id="DejaVuSans-2d"/>
      <path d="M 9.421875 54.6875 
L 18.40625 54.6875 
L 18.40625 0 
L 9.421875 0 
z
M 9.421875 75.984375 
L 18.40625 75.984375 
L 18.40625 64.59375 
L 9.421875 64.59375 
z
" id="DejaVuSans-69"/>
      <path d="M 52 44.1875 
Q 55.375 50.25 60.0625 53.125 
Q 64.75 56 71.09375 56 
Q 79.640625 56 84.28125 50.015625 
Q 88.921875 44.046875 88.921875 33.015625 
L 88.921875 0 
L 79.890625 0 
L 79.890625 32.71875 
Q 79.890625 40.578125 77.09375 44.375 
Q 74.3125 48.1875 68.609375 48.1875 
Q 61.625 48.1875 57.5625 43.546875 
Q 53.515625 38.921875 53.515625 30.90625 
L 53.515625 0 
L 44.484375 0 
L 44.484375 32.71875 
Q 44.484375 40.625 41.703125 44.40625 
Q 38.921875 48.1875 33.109375 48.1875 
Q 26.21875 48.1875 22.15625 43.53125 
Q 18.109375 38.875 18.109375 30.90625 
L 18.109375 0 
L 9.078125 0 
L 9.078125 54.6875 
L 18.109375 54.6875 
L 18.109375 46.1875 
Q 21.1875 51.21875 25.484375 53.609375 
Q 29.78125 56 35.6875 56 
Q 41.65625 56 45.828125 52.96875 
Q 50 49.953125 52 44.1875 
z
" id="DejaVuSans-6d"/>
      <path id="DejaVuSans-20"/>
      <path d="M 34.28125 27.484375 
Q 23.390625 27.484375 19.1875 25 
Q 14.984375 22.515625 14.984375 16.5 
Q 14.984375 11.71875 18.140625 8.90625 
Q 21.296875 6.109375 26.703125 6.109375 
Q 34.1875 6.109375 38.703125 11.40625 
Q 43.21875 16.703125 43.21875 25.484375 
L 43.21875 27.484375 
z
M 52.203125 31.203125 
L 52.203125 0 
L 43.21875 0 
L 43.21875 8.296875 
Q 40.140625 3.328125 35.546875 0.953125 
Q 30.953125 -1.421875 24.3125 -1.421875 
Q 15.921875 -1.421875 10.953125 3.296875 
Q 6 8.015625 6 15.921875 
Q 6 25.140625 12.171875 29.828125 
Q 18.359375 34.515625 30.609375 34.515625 
L 43.21875 34.515625 
L 43.21875 35.40625 
Q 43.21875 41.609375 39.140625 45 
Q 35.0625 48.390625 27.6875 48.390625 
Q 23 48.390625 18.546875 47.265625 
Q 14.109375 46.140625 10.015625 43.890625 
L 10.015625 52.203125 
Q 14.9375 54.109375 19.578125 55.046875 
Q 24.21875 56 28.609375 56 
Q 40.484375 56 46.34375 49.84375 
Q 52.203125 43.703125 52.203125 31.203125 
z
" id="DejaVuSans-61"/>
      <path d="M 45.40625 46.390625 
L 45.40625 75.984375 
L 54.390625 75.984375 
L 54.390625 0 
L 45.40625 0 
L 45.40625 8.203125 
Q 42.578125 3.328125 38.25 0.953125 
Q 33.9375 -1.421875 27.875 -1.421875 
Q 17.96875 -1.421875 11.734375 6.484375 
Q 5.515625 14.40625 5.515625 27.296875 
Q 5.515625 40.1875 11.734375 48.09375 
Q 17.96875 56 27.875 56 
Q 33.9375 56 38.25 53.625 
Q 42.578125 51.265625 45.40625 46.390625 
z
M 14.796875 27.296875 
Q 14.796875 17.390625 18.875 11.75 
Q 22.953125 6.109375 30.078125 6.109375 
Q 37.203125 6.109375 41.296875 11.75 
Q 45.40625 17.390625 45.40625 27.296875 
Q 45.40625 37.203125 41.296875 42.84375 
Q 37.203125 48.484375 30.078125 48.484375 
Q 22.953125 48.484375 18.875 42.84375 
Q 14.796875 37.203125 14.796875 27.296875 
z
" id="DejaVuSans-64"/>
      <path d="M 18.109375 8.203125 
L 18.109375 -20.796875 
L 9.078125 -20.796875 
L 9.078125 54.6875 
L 18.109375 54.6875 
L 18.109375 46.390625 
Q 20.953125 51.265625 25.265625 53.625 
Q 29.59375 56 35.59375 56 
Q 45.5625 56 51.78125 48.09375 
Q 58.015625 40.1875 58.015625 27.296875 
Q 58.015625 14.40625 51.78125 6.484375 
Q 45.5625 -1.421875 35.59375 -1.421875 
Q 29.59375 -1.421875 25.265625 0.953125 
Q 20.953125 3.328125 18.109375 8.203125 
z
M 48.6875 27.296875 
Q 48.6875 37.203125 44.609375 42.84375 
Q 40.53125 48.484375 33.40625 48.484375 
Q 26.265625 48.484375 22.1875 42.84375 
Q 18.109375 37.203125 18.109375 27.296875 
Q 18.109375 17.390625 22.1875 11.75 
Q 26.265625 6.109375 33.40625 6.109375 
Q 40.53125 6.109375 44.609375 11.75 
Q 48.6875 17.390625 48.6875 27.296875 
z
" id="DejaVuSans-70"/>
      <path d="M 30.609375 48.390625 
Q 23.390625 48.390625 19.1875 42.75 
Q 14.984375 37.109375 14.984375 27.296875 
Q 14.984375 17.484375 19.15625 11.84375 
Q 23.34375 6.203125 30.609375 6.203125 
Q 37.796875 6.203125 41.984375 11.859375 
Q 46.1875 17.53125 46.1875 27.296875 
Q 46.1875 37.015625 41.984375 42.703125 
Q 37.796875 48.390625 30.609375 48.390625 
z
M 30.609375 56 
Q 42.328125 56 49.015625 48.375 
Q 55.71875 40.765625 55.71875 27.296875 
Q 55.71875 13.875 49.015625 6.21875 
Q 42.328125 -1.421875 30.609375 -1.421875 
Q 18.84375 -1.421875 12.171875 6.21875 
Q 5.515625 13.875 5.515625 27.296875 
Q 5.515625 40.765625 12.171875 48.375 
Q 18.84375 56 30.609375 56 
z
" id="DejaVuSans-6f"/>
      <path d="M 54.890625 33.015625 
L 54.890625 0 
L 45.90625 0 
L 45.90625 32.71875 
Q 45.90625 40.484375 42.875 44.328125 
Q 39.84375 48.1875 33.796875 48.1875 
Q 26.515625 48.1875 22.3125 43.546875 
Q 18.109375 38.921875 18.109375 30.90625 
L 18.109375 0 
L 9.078125 0 
L 9.078125 54.6875 
L 18.109375 54.6875 
L 18.109375 46.1875 
Q 21.34375 51.125 25.703125 53.5625 
Q 30.078125 56 35.796875 56 
Q 45.21875 56 50.046875 50.171875 
Q 54.890625 44.34375 54.890625 33.015625 
z
" id="DejaVuSans-6e"/>
      <path d="M 41.109375 46.296875 
Q 39.59375 47.171875 37.8125 47.578125 
Q 36.03125 48 33.890625 48 
Q 26.265625 48 22.1875 43.046875 
Q 18.109375 38.09375 18.109375 28.8125 
L 18.109375 0 
L 9.078125 0 
L 9.078125 54.6875 
L 18.109375 54.6875 
L 18.109375 46.1875 
Q 20.953125 51.171875 25.484375 53.578125 
Q 30.03125 56 36.53125 56 
Q 37.453125 56 38.578125 55.875 
Q 39.703125 55.765625 41.0625 55.515625 
z
" id="DejaVuSans-72"/>
      <path d="M 9.421875 54.6875 
L 18.40625 54.6875 
L 18.40625 -0.984375 
Q 18.40625 -11.421875 14.421875 -16.109375 
Q 10.453125 -20.796875 1.609375 -20.796875 
L -1.8125 -20.796875 
L -1.8125 -13.1875 
L 0.59375 -13.1875 
Q 5.71875 -13.1875 7.5625 -10.8125 
Q 9.421875 -8.453125 9.421875 -0.984375 
z
M 9.421875 75.984375 
L 18.40625 75.984375 
L 18.40625 64.59375 
L 9.421875 64.59375 
z
" id="DejaVuSans-6a"/>
      <path d="M 48.78125 52.59375 
L 48.78125 44.1875 
Q 44.96875 46.296875 41.140625 47.34375 
Q 37.3125 48.390625 33.40625 48.390625 
Q 24.65625 48.390625 19.8125 42.84375 
Q 14.984375 37.3125 14.984375 27.296875 
Q 14.984375 17.28125 19.8125 11.734375 
Q 24.65625 6.203125 33.40625 6.203125 
Q 37.3125 6.203125 41.140625 7.25 
Q 44.96875 8.296875 48.78125 10.40625 
L 48.78125 2.09375 
Q 45.015625 0.34375 40.984375 -0.53125 
Q 36.96875 -1.421875 32.421875 -1.421875 
Q 20.0625 -1.421875 12.78125 6.34375 
Q 5.515625 14.109375 5.515625 27.296875 
Q 5.515625 40.671875 12.859375 48.328125 
Q 20.21875 56 33.015625 56 
Q 37.15625 56 41.109375 55.140625 
Q 45.0625 54.296875 48.78125 52.59375 
z
" id="DejaVuSans-63"/>
     </defs>
     <g style="fill:#555555;" transform="translate(100.770156 276.061563)scale(0.14 -0.14)">
      <use xlink:href="#DejaVuSans-54"/>
      <use x="60.818359" xlink:href="#DejaVuSans-65"/>
      <use x="122.341797" xlink:href="#DejaVuSans-73"/>
      <use x="174.441406" xlink:href="#DejaVuSans-74"/>
      <use x="213.650391" xlink:href="#DejaVuSans-2d"/>
      <use x="249.734375" xlink:href="#DejaVuSans-74"/>
      <use x="288.943359" xlink:href="#DejaVuSans-69"/>
      <use x="316.726562" xlink:href="#DejaVuSans-6d"/>
      <use x="414.138672" xlink:href="#DejaVuSans-65"/>
      <use x="475.662109" xlink:href="#DejaVuSans-20"/>
      <use x="507.449219" xlink:href="#DejaVuSans-61"/>
      <use x="568.728516" xlink:href="#DejaVuSans-64"/>
      <use x="632.205078" xlink:href="#DejaVuSans-61"/>
      <use x="693.484375" xlink:href="#DejaVuSans-70"/>
      <use x="756.960938" xlink:href="#DejaVuSans-74"/>
      <use x="796.169922" xlink:href="#DejaVuSans-61"/>
      <use x="857.449219" xlink:href="#DejaVuSans-74"/>
      <use x="896.658203" xlink:href="#DejaVuSans-69"/>
      <use x="924.441406" xlink:href="#DejaVuSans-6f"/>
      <use x="985.623047" xlink:href="#DejaVuSans-6e"/>
      <use x="1049.001953" xlink:href="#DejaVuSans-20"/>
      <use x="1080.789062" xlink:href="#DejaVuSans-74"/>
      <use x="1119.998047" xlink:href="#DejaVuSans-72"/>
      <use x="1161.111328" xlink:href="#DejaVuSans-61"/>
      <use x="1222.390625" xlink:href="#DejaVuSans-6a"/>
      <use x="1250.173828" xlink:href="#DejaVuSans-65"/>
      <use x="1311.697266" xlink:href="#DejaVuSans-63"/>
      <use x="1366.677734" xlink:href="#DejaVuSans-74"/>
      <use x="1405.886719" xlink:href="#DejaVuSans-6f"/>
      <use x="1467.068359" xlink:href="#DejaVuSans-72"/>
      <use x="1508.181641" xlink:href="#DejaVuSans-69"/>
      <use x="1535.964844" xlink:href="#DejaVuSans-65"/>
      <use x="1597.488281" xlink:href="#DejaVuSans-73"/>
     </g>
    </g>
   </g>
   <g id="matplotlib.axis_2">
    <g id="ytick_1">
     <g id="line2d_7">
      <path clip-path="url(#p5b67381736)" d="M 48.839531 234.162184 
L 383.639531 234.162184 
" style="fill:none;stroke:#ffffff;stroke-linecap:round;"/>
     </g>
     <g id="text_8">
      <!-- 0 -->
      <g style="fill:#555555;" transform="translate(32.340781 238.341324)scale(0.11 -0.11)">
       <use xlink:href="#DejaVuSans-30"/>
      </g>
     </g>
    </g>
    <g id="ytick_2">
     <g id="line2d_8">
      <path clip-path="url(#p5b67381736)" d="M 48.839531 207.48447 
L 383.639531 207.48447 
" style="fill:none;stroke:#ffffff;stroke-linecap:round;"/>
     </g>
     <g id="text_9">
      <!-- 2 -->
      <g style="fill:#555555;" transform="translate(32.340781 211.663611)scale(0.11 -0.11)">
       <use xlink:href="#DejaVuSans-32"/>
      </g>
     </g>
    </g>
    <g id="ytick_3">
     <g id="line2d_9">
      <path clip-path="url(#p5b67381736)" d="M 48.839531 180.806757 
L 383.639531 180.806757 
" style="fill:none;stroke:#ffffff;stroke-linecap:round;"/>
     </g>
     <g id="text_10">
      <!-- 4 -->
      <g style="fill:#555555;" transform="translate(32.340781 184.985898)scale(0.11 -0.11)">
       <use xlink:href="#DejaVuSans-34"/>
      </g>
     </g>
    </g>
    <g id="ytick_4">
     <g id="line2d_10">
      <path clip-path="url(#p5b67381736)" d="M 48.839531 154.129044 
L 383.639531 154.129044 
" style="fill:none;stroke:#ffffff;stroke-linecap:round;"/>
     </g>
     <g id="text_11">
      <!-- 6 -->
      <defs>
       <path d="M 33.015625 40.375 
Q 26.375 40.375 22.484375 35.828125 
Q 18.609375 31.296875 18.609375 23.390625 
Q 18.609375 15.53125 22.484375 10.953125 
Q 26.375 6.390625 33.015625 6.390625 
Q 39.65625 6.390625 43.53125 10.953125 
Q 47.40625 15.53125 47.40625 23.390625 
Q 47.40625 31.296875 43.53125 35.828125 
Q 39.65625 40.375 33.015625 40.375 
z
M 52.59375 71.296875 
L 52.59375 62.3125 
Q 48.875 64.0625 45.09375 64.984375 
Q 41.3125 65.921875 37.59375 65.921875 
Q 27.828125 65.921875 22.671875 59.328125 
Q 17.53125 52.734375 16.796875 39.40625 
Q 19.671875 43.65625 24.015625 45.921875 
Q 28.375 48.1875 33.59375 48.1875 
Q 44.578125 48.1875 50.953125 41.515625 
Q 57.328125 34.859375 57.328125 23.390625 
Q 57.328125 12.15625 50.6875 5.359375 
Q 44.046875 -1.421875 33.015625 -1.421875 
Q 20.359375 -1.421875 13.671875 8.265625 
Q 6.984375 17.96875 6.984375 36.375 
Q 6.984375 53.65625 15.1875 63.9375 
Q 23.390625 74.21875 37.203125 74.21875 
Q 40.921875 74.21875 44.703125 73.484375 
Q 48.484375 72.75 52.59375 71.296875 
z
" id="DejaVuSans-36"/>
      </defs>
      <g style="fill:#555555;" transform="translate(32.340781 158.308184)scale(0.11 -0.11)">
       <use xlink:href="#DejaVuSans-36"/>
      </g>
     </g>
    </g>
    <g id="ytick_5">
     <g id="line2d_11">
      <path clip-path="url(#p5b67381736)" d="M 48.839531 127.45133 
L 383.639531 127.45133 
" style="fill:none;stroke:#ffffff;stroke-linecap:round;"/>
     </g>
     <g id="text_12">
      <!-- 8 -->
      <defs>
       <path d="M 31.78125 34.625 
Q 24.75 34.625 20.71875 30.859375 
Q 16.703125 27.09375 16.703125 20.515625 
Q 16.703125 13.921875 20.71875 10.15625 
Q 24.75 6.390625 31.78125 6.390625 
Q 38.8125 6.390625 42.859375 10.171875 
Q 46.921875 13.96875 46.921875 20.515625 
Q 46.921875 27.09375 42.890625 30.859375 
Q 38.875 34.625 31.78125 34.625 
z
M 21.921875 38.8125 
Q 15.578125 40.375 12.03125 44.71875 
Q 8.5 49.078125 8.5 55.328125 
Q 8.5 64.0625 14.71875 69.140625 
Q 20.953125 74.21875 31.78125 74.21875 
Q 42.671875 74.21875 48.875 69.140625 
Q 55.078125 64.0625 55.078125 55.328125 
Q 55.078125 49.078125 51.53125 44.71875 
Q 48 40.375 41.703125 38.8125 
Q 48.828125 37.15625 52.796875 32.3125 
Q 56.78125 27.484375 56.78125 20.515625 
Q 56.78125 9.90625 50.3125 4.234375 
Q 43.84375 -1.421875 31.78125 -1.421875 
Q 19.734375 -1.421875 13.25 4.234375 
Q 6.78125 9.90625 6.78125 20.515625 
Q 6.78125 27.484375 10.78125 32.3125 
Q 14.796875 37.15625 21.921875 38.8125 
z
M 18.3125 54.390625 
Q 18.3125 48.734375 21.84375 45.5625 
Q 25.390625 42.390625 31.78125 42.390625 
Q 38.140625 42.390625 41.71875 45.5625 
Q 45.3125 48.734375 45.3125 54.390625 
Q 45.3125 60.0625 41.71875 63.234375 
Q 38.140625 66.40625 31.78125 66.40625 
Q 25.390625 66.40625 21.84375 63.234375 
Q 18.3125 60.0625 18.3125 54.390625 
z
" id="DejaVuSans-38"/>
      </defs>
      <g style="fill:#555555;" transform="translate(32.340781 131.630471)scale(0.11 -0.11)">
       <use xlink:href="#DejaVuSans-38"/>
      </g>
     </g>
    </g>
    <g id="ytick_6">
     <g id="line2d_12">
      <path clip-path="url(#p5b67381736)" d="M 48.839531 100.773617 
L 383.639531 100.773617 
" style="fill:none;stroke:#ffffff;stroke-linecap:round;"/>
     </g>
     <g id="text_13">
      <!-- 10 -->
      <g style="fill:#555555;" transform="translate(25.342031 104.952758)scale(0.11 -0.11)">
       <use xlink:href="#DejaVuSans-31"/>
       <use x="63.623047" xlink:href="#DejaVuSans-30"/>
      </g>
     </g>
    </g>
    <g id="ytick_7">
     <g id="line2d_13">
      <path clip-path="url(#p5b67381736)" d="M 48.839531 74.095904 
L 383.639531 74.095904 
" style="fill:none;stroke:#ffffff;stroke-linecap:round;"/>
     </g>
     <g id="text_14">
      <!-- 12 -->
      <g style="fill:#555555;" transform="translate(25.342031 78.275044)scale(0.11 -0.11)">
       <use xlink:href="#DejaVuSans-31"/>
       <use x="63.623047" xlink:href="#DejaVuSans-32"/>
      </g>
     </g>
    </g>
    <g id="ytick_8">
     <g id="line2d_14">
      <path clip-path="url(#p5b67381736)" d="M 48.839531 47.41819 
L 383.639531 47.41819 
" style="fill:none;stroke:#ffffff;stroke-linecap:round;"/>
     </g>
     <g id="text_15">
      <!-- 14 -->
      <g style="fill:#555555;" transform="translate(25.342031 51.597331)scale(0.11 -0.11)">
       <use xlink:href="#DejaVuSans-31"/>
       <use x="63.623047" xlink:href="#DejaVuSans-34"/>
      </g>
     </g>
    </g>
    <g id="text_16">
     <!-- Return -->
     <defs>
      <path d="M 44.390625 34.1875 
Q 47.5625 33.109375 50.5625 29.59375 
Q 53.5625 26.078125 56.59375 19.921875 
L 66.609375 0 
L 56 0 
L 46.6875 18.703125 
Q 43.0625 26.03125 39.671875 28.421875 
Q 36.28125 30.8125 30.421875 30.8125 
L 19.671875 30.8125 
L 19.671875 0 
L 9.8125 0 
L 9.8125 72.90625 
L 32.078125 72.90625 
Q 44.578125 72.90625 50.734375 67.671875 
Q 56.890625 62.453125 56.890625 51.90625 
Q 56.890625 45.015625 53.6875 40.46875 
Q 50.484375 35.9375 44.390625 34.1875 
z
M 19.671875 64.796875 
L 19.671875 38.921875 
L 32.078125 38.921875 
Q 39.203125 38.921875 42.84375 42.21875 
Q 46.484375 45.515625 46.484375 51.90625 
Q 46.484375 58.296875 42.84375 61.546875 
Q 39.203125 64.796875 32.078125 64.796875 
z
" id="DejaVuSans-52"/>
      <path d="M 8.5 21.578125 
L 8.5 54.6875 
L 17.484375 54.6875 
L 17.484375 21.921875 
Q 17.484375 14.15625 20.5 10.265625 
Q 23.53125 6.390625 29.59375 6.390625 
Q 36.859375 6.390625 41.078125 11.03125 
Q 45.3125 15.671875 45.3125 23.6875 
L 45.3125 54.6875 
L 54.296875 54.6875 
L 54.296875 0 
L 45.3125 0 
L 45.3125 8.40625 
Q 42.046875 3.421875 37.71875 1 
Q 33.40625 -1.421875 27.6875 -1.421875 
Q 18.265625 -1.421875 13.375 4.4375 
Q 8.5 10.296875 8.5 21.578125 
z
M 31.109375 56 
z
" id="DejaVuSans-75"/>
     </defs>
     <g style="fill:#555555;" transform="translate(18.430469 156.217813)rotate(-90)scale(0.14 -0.14)">
      <use xlink:href="#DejaVuSans-52"/>
      <use x="69.419922" xlink:href="#DejaVuSans-65"/>
      <use x="130.943359" xlink:href="#DejaVuSans-74"/>
      <use x="170.152344" xlink:href="#DejaVuSans-75"/>
      <use x="233.53125" xlink:href="#DejaVuSans-72"/>
      <use x="274.628906" xlink:href="#DejaVuSans-6e"/>
     </g>
    </g>
   </g>
   <g id="PolyCollection_1">
    <defs>
     <path d="M 48.839531 -106.821796 
L 48.839531 -104.8435 
L 55.039531 -101.310363 
L 61.239531 -97.230093 
L 67.439531 -100.321003 
L 73.639531 -93.464803 
L 79.839531 -107.801583 
L 86.039531 -174.287846 
L 92.239531 -188.885922 
L 98.439531 -199.734559 
L 104.639531 -203.807448 
L 110.839531 -204.109209 
L 117.039531 -210.282269 
L 123.239531 -213.199539 
L 129.439531 -221.110403 
L 135.639531 -218.825847 
L 141.839531 -225.407203 
L 148.039531 -224.442093 
L 154.239531 -230.596893 
L 160.439531 -233.961557 
L 166.639531 -235.223207 
L 172.839531 -236.529143 
L 179.039531 -238.004479 
L 185.239531 -238.315693 
L 191.439531 -237.765417 
L 197.639531 -238.514706 
L 203.839531 -240.875433 
L 210.039531 -238.447777 
L 216.239531 -241.266439 
L 222.439531 -241.948206 
L 228.639531 -241.245312 
L 234.839531 -242.824049 
L 241.039531 -244.069939 
L 247.239531 -244.140389 
L 253.439531 -246.280112 
L 259.639531 -247.190644 
L 265.839531 -247.081111 
L 272.039531 -247.13417 
L 278.239531 -247.050936 
L 284.439531 -246.723884 
L 290.639531 -247.379403 
L 296.839531 -247.694133 
L 303.039531 -246.828291 
L 309.239531 -247.510328 
L 315.439531 -247.397373 
L 321.639531 -247.636913 
L 327.839531 -246.853113 
L 334.039531 -247.236437 
L 340.239531 -247.405861 
L 346.439531 -247.313752 
L 352.639531 -247.620747 
L 358.839531 -246.741357 
L 365.039531 -246.803869 
L 371.239531 -247.820567 
L 377.439531 -247.716048 
L 383.639531 -247.978219 
L 383.639531 -252.232393 
L 383.639531 -252.232393 
L 377.439531 -250.507365 
L 371.239531 -247.995431 
L 365.039531 -247.797608 
L 358.839531 -247.681851 
L 352.639531 -247.683562 
L 346.439531 -247.722673 
L 340.239531 -247.70607 
L 334.039531 -247.670881 
L 327.839531 -247.51192 
L 321.639531 -248.021378 
L 315.439531 -247.626188 
L 309.239531 -247.651213 
L 303.039531 -247.474789 
L 296.839531 -247.697171 
L 290.639531 -247.65076 
L 284.439531 -247.574996 
L 278.239531 -247.346535 
L 272.039531 -247.192774 
L 265.839531 -247.481183 
L 259.639531 -247.39396 
L 253.439531 -247.080397 
L 247.239531 -247.126589 
L 241.039531 -247.279469 
L 234.839531 -247.89059 
L 228.639531 -247.092529 
L 222.439531 -245.423435 
L 216.239531 -245.358724 
L 210.039531 -244.245887 
L 203.839531 -244.259493 
L 197.639531 -242.863439 
L 191.439531 -241.737134 
L 185.239531 -241.542884 
L 179.039531 -240.89247 
L 172.839531 -239.103672 
L 166.639531 -238.451697 
L 160.439531 -235.505334 
L 154.239531 -233.195063 
L 148.039531 -232.152612 
L 141.839531 -232.738237 
L 135.639531 -230.220634 
L 129.439531 -229.811465 
L 123.239531 -222.561893 
L 117.039531 -219.99105 
L 110.839531 -217.642176 
L 104.639531 -208.244613 
L 98.439531 -203.844875 
L 92.239531 -195.43093 
L 86.039531 -177.936658 
L 79.839531 -108.109803 
L 73.639531 -104.708289 
L 67.439531 -103.294524 
L 61.239531 -98.881958 
L 55.039531 -104.622211 
L 48.839531 -106.821796 
z
" id="mc5abaa6716" style="stroke:#ffffff;stroke-opacity:0.2;"/>
    </defs>
    <g clip-path="url(#p5b67381736)">
     <use style="fill:#348abd;fill-opacity:0.2;stroke:#ffffff;stroke-opacity:0.2;" x="0" xlink:href="#mc5abaa6716" y="319.081813"/>
    </g>
   </g>
   <g id="PolyCollection_2">
    <defs>
     <path d="M 48.839531 -94.173753 
L 48.839531 -91.680907 
L 55.039531 -91.680907 
L 61.239531 -91.680907 
L 67.439531 -91.680907 
L 73.639531 -91.680907 
L 79.839531 -91.680907 
L 86.039531 -91.680907 
L 92.239531 -91.680907 
L 98.439531 -91.680907 
L 104.639531 -91.680907 
L 110.839531 -91.680907 
L 117.039531 -91.680907 
L 123.239531 -91.680907 
L 129.439531 -91.680907 
L 135.639531 -91.680907 
L 141.839531 -91.680907 
L 148.039531 -91.680907 
L 154.239531 -91.680907 
L 160.439531 -91.680907 
L 166.639531 -91.680907 
L 172.839531 -96.85969 
L 179.039531 -96.85969 
L 185.239531 -96.85969 
L 191.439531 -96.85969 
L 197.639531 -96.85969 
L 203.839531 -96.85969 
L 210.039531 -96.85969 
L 216.239531 -96.85969 
L 222.439531 -96.85969 
L 228.639531 -96.85969 
L 234.839531 -96.85969 
L 241.039531 -96.85969 
L 247.239531 -96.85969 
L 253.439531 -96.85969 
L 259.639531 -96.85969 
L 265.839531 -96.85969 
L 272.039531 -96.85969 
L 278.239531 -96.85969 
L 284.439531 -96.85969 
L 290.639531 -96.85969 
L 296.839531 -98.285199 
L 303.039531 -98.285199 
L 309.239531 -98.285199 
L 315.439531 -98.285199 
L 321.639531 -98.285199 
L 327.839531 -98.285199 
L 334.039531 -98.285199 
L 340.239531 -98.285199 
L 346.439531 -98.285199 
L 352.639531 -98.285199 
L 358.839531 -98.285199 
L 365.039531 -98.285199 
L 371.239531 -98.285199 
L 377.439531 -98.285199 
L 383.639531 -98.285199 
L 383.639531 -108.129363 
L 383.639531 -108.129363 
L 377.439531 -108.129363 
L 371.239531 -108.129363 
L 365.039531 -108.129363 
L 358.839531 -108.129363 
L 352.639531 -108.129363 
L 346.439531 -108.129363 
L 340.239531 -108.129363 
L 334.039531 -108.129363 
L 327.839531 -108.129363 
L 321.639531 -108.129363 
L 315.439531 -108.129363 
L 309.239531 -108.129363 
L 303.039531 -108.129363 
L 296.839531 -108.129363 
L 290.639531 -99.860952 
L 284.439531 -99.860952 
L 278.239531 -99.860952 
L 272.039531 -99.860952 
L 265.839531 -99.860952 
L 259.639531 -99.860952 
L 253.439531 -99.860952 
L 247.239531 -99.860952 
L 241.039531 -99.860952 
L 234.839531 -99.860952 
L 228.639531 -99.860952 
L 222.439531 -99.860952 
L 216.239531 -99.860952 
L 210.039531 -99.860952 
L 203.839531 -99.860952 
L 197.639531 -99.860952 
L 191.439531 -99.860952 
L 185.239531 -99.860952 
L 179.039531 -99.860952 
L 172.839531 -99.860952 
L 166.639531 -94.173753 
L 160.439531 -94.173753 
L 154.239531 -94.173753 
L 148.039531 -94.173753 
L 141.839531 -94.173753 
L 135.639531 -94.173753 
L 129.439531 -94.173753 
L 123.239531 -94.173753 
L 117.039531 -94.173753 
L 110.839531 -94.173753 
L 104.639531 -94.173753 
L 98.439531 -94.173753 
L 92.239531 -94.173753 
L 86.039531 -94.173753 
L 79.839531 -94.173753 
L 73.639531 -94.173753 
L 67.439531 -94.173753 
L 61.239531 -94.173753 
L 55.039531 -94.173753 
L 48.839531 -94.173753 
z
" id="mf10be46efc" style="stroke:#ffffff;stroke-opacity:0.2;"/>
    </defs>
    <g clip-path="url(#p5b67381736)">
     <use style="fill:#988ed5;fill-opacity:0.2;stroke:#ffffff;stroke-opacity:0.2;" x="0" xlink:href="#mf10be46efc" y="319.081813"/>
    </g>
   </g>
   <g id="PolyCollection_3">
    <defs>
     <path d="M 48.839531 -143.580765 
L 48.839531 -138.69865 
L 55.039531 -131.543626 
L 61.239531 -147.514858 
L 67.439531 -132.30846 
L 73.639531 -135.728512 
L 79.839531 -132.490029 
L 86.039531 -243.49486 
L 92.239531 -258.648063 
L 98.439531 -266.502322 
L 104.639531 -274.296313 
L 110.839531 -273.915972 
L 117.039531 -276.094372 
L 123.239531 -278.208218 
L 129.439531 -279.528006 
L 135.639531 -276.979976 
L 141.839531 -280.003504 
L 148.039531 -279.278443 
L 154.239531 -280.327618 
L 160.439531 -279.931797 
L 166.639531 -282.692483 
L 172.839531 -282.595374 
L 179.039531 -282.9359 
L 185.239531 -281.688868 
L 191.439531 -282.767491 
L 197.639531 -283.278293 
L 203.839531 -283.630927 
L 210.039531 -283.36314 
L 216.239531 -284.089053 
L 222.439531 -284.117951 
L 228.639531 -283.224988 
L 234.839531 -283.62941 
L 241.039531 -284.141328 
L 247.239531 -283.400391 
L 253.439531 -283.392517 
L 259.639531 -283.720758 
L 265.839531 -283.540042 
L 272.039531 -283.574015 
L 278.239531 -283.359362 
L 284.439531 -283.955275 
L 290.639531 -283.008581 
L 296.839531 -283.914188 
L 303.039531 -284.369605 
L 309.239531 -284.420475 
L 315.439531 -283.667929 
L 321.639531 -283.713757 
L 327.839531 -284.431547 
L 334.039531 -284.523387 
L 340.239531 -283.597296 
L 346.439531 -283.815722 
L 352.639531 -283.345657 
L 358.839531 -284.844003 
L 365.039531 -283.786718 
L 371.239531 -283.424517 
L 377.439531 -283.563424 
L 383.639531 -284.40338 
L 383.639531 -285.181091 
L 383.639531 -285.181091 
L 377.439531 -285.149322 
L 371.239531 -285.285915 
L 365.039531 -285.054701 
L 358.839531 -284.928031 
L 352.639531 -284.94435 
L 346.439531 -284.984706 
L 340.239531 -284.626212 
L 334.039531 -284.540467 
L 327.839531 -284.657905 
L 321.639531 -285.199675 
L 315.439531 -285.149257 
L 309.239531 -284.558183 
L 303.039531 -284.692189 
L 296.839531 -284.609083 
L 290.639531 -284.469465 
L 284.439531 -284.676689 
L 278.239531 -285.360364 
L 272.039531 -284.184065 
L 265.839531 -284.673524 
L 259.639531 -284.733025 
L 253.439531 -284.48944 
L 247.239531 -284.026457 
L 241.039531 -284.253967 
L 234.839531 -284.006351 
L 228.639531 -284.393316 
L 222.439531 -285.084917 
L 216.239531 -284.093727 
L 210.039531 -284.390931 
L 203.839531 -283.923487 
L 197.639531 -283.983162 
L 191.439531 -283.919063 
L 185.239531 -284.662487 
L 179.039531 -283.244383 
L 172.839531 -282.912974 
L 166.639531 -283.266853 
L 160.439531 -283.107436 
L 154.239531 -282.991524 
L 148.039531 -281.612357 
L 141.839531 -281.726668 
L 135.639531 -280.866615 
L 129.439531 -279.675553 
L 123.239531 -278.515648 
L 117.039531 -276.48842 
L 110.839531 -275.267201 
L 104.639531 -275.195239 
L 98.439531 -275.535956 
L 92.239531 -261.453302 
L 86.039531 -256.306719 
L 79.839531 -149.530754 
L 73.639531 -151.312825 
L 67.439531 -163.309904 
L 61.239531 -155.666848 
L 55.039531 -153.571317 
L 48.839531 -143.580765 
z
" id="m5c49be6ec3" style="stroke:#ffffff;stroke-opacity:0.2;"/>
    </defs>
    <g clip-path="url(#p5b67381736)">
     <use style="fill:#348abd;fill-opacity:0.2;stroke:#ffffff;stroke-opacity:0.2;" x="0" xlink:href="#m5c49be6ec3" y="319.081813"/>
    </g>
   </g>
   <g id="PolyCollection_4">
    <defs>
     <path d="M 48.839531 -130.397772 
L 48.839531 -87.687636 
L 55.039531 -87.687636 
L 61.239531 -87.687636 
L 67.439531 -87.687636 
L 73.639531 -87.687636 
L 79.839531 -87.687636 
L 86.039531 -87.687636 
L 92.239531 -87.687636 
L 98.439531 -87.687636 
L 104.639531 -87.687636 
L 110.839531 -87.687636 
L 117.039531 -87.687636 
L 123.239531 -87.687636 
L 129.439531 -87.687636 
L 135.639531 -87.687636 
L 141.839531 -87.687636 
L 148.039531 -87.687636 
L 154.239531 -87.687636 
L 160.439531 -87.687636 
L 166.639531 -87.687636 
L 172.839531 -99.024449 
L 179.039531 -99.024449 
L 185.239531 -99.024449 
L 191.439531 -99.024449 
L 197.639531 -99.024449 
L 203.839531 -99.024449 
L 210.039531 -99.024449 
L 216.239531 -99.024449 
L 222.439531 -99.024449 
L 228.639531 -99.024449 
L 234.839531 -99.024449 
L 241.039531 -99.024449 
L 247.239531 -99.024449 
L 253.439531 -99.024449 
L 259.639531 -99.024449 
L 265.839531 -99.024449 
L 272.039531 -99.024449 
L 278.239531 -99.024449 
L 284.439531 -99.024449 
L 290.639531 -99.024449 
L 296.839531 -112.50875 
L 303.039531 -112.50875 
L 309.239531 -112.50875 
L 315.439531 -112.50875 
L 321.639531 -112.50875 
L 327.839531 -112.50875 
L 334.039531 -112.50875 
L 340.239531 -112.50875 
L 346.439531 -112.50875 
L 352.639531 -112.50875 
L 358.839531 -112.50875 
L 365.039531 -112.50875 
L 371.239531 -112.50875 
L 377.439531 -112.50875 
L 383.639531 -112.50875 
L 383.639531 -173.737428 
L 383.639531 -173.737428 
L 377.439531 -173.737428 
L 371.239531 -173.737428 
L 365.039531 -173.737428 
L 358.839531 -173.737428 
L 352.639531 -173.737428 
L 346.439531 -173.737428 
L 340.239531 -173.737428 
L 334.039531 -173.737428 
L 327.839531 -173.737428 
L 321.639531 -173.737428 
L 315.439531 -173.737428 
L 309.239531 -173.737428 
L 303.039531 -173.737428 
L 296.839531 -173.737428 
L 290.639531 -172.494252 
L 284.439531 -172.494252 
L 278.239531 -172.494252 
L 272.039531 -172.494252 
L 265.839531 -172.494252 
L 259.639531 -172.494252 
L 253.439531 -172.494252 
L 247.239531 -172.494252 
L 241.039531 -172.494252 
L 234.839531 -172.494252 
L 228.639531 -172.494252 
L 222.439531 -172.494252 
L 216.239531 -172.494252 
L 210.039531 -172.494252 
L 203.839531 -172.494252 
L 197.639531 -172.494252 
L 191.439531 -172.494252 
L 185.239531 -172.494252 
L 179.039531 -172.494252 
L 172.839531 -172.494252 
L 166.639531 -130.397772 
L 160.439531 -130.397772 
L 154.239531 -130.397772 
L 148.039531 -130.397772 
L 141.839531 -130.397772 
L 135.639531 -130.397772 
L 129.439531 -130.397772 
L 123.239531 -130.397772 
L 117.039531 -130.397772 
L 110.839531 -130.397772 
L 104.639531 -130.397772 
L 98.439531 -130.397772 
L 92.239531 -130.397772 
L 86.039531 -130.397772 
L 79.839531 -130.397772 
L 73.639531 -130.397772 
L 67.439531 -130.397772 
L 61.239531 -130.397772 
L 55.039531 -130.397772 
L 48.839531 -130.397772 
z
" id="m6c8c6bc752" style="stroke:#ffffff;stroke-opacity:0.2;"/>
    </defs>
    <g clip-path="url(#p5b67381736)">
     <use style="fill:#988ed5;fill-opacity:0.2;stroke:#ffffff;stroke-opacity:0.2;" x="0" xlink:href="#m6c8c6bc752" y="319.081813"/>
    </g>
   </g>
   <g id="line2d_15">
    <path clip-path="url(#p5b67381736)" d="M 48.839531 213.249165 
L 55.039531 216.115525 
L 61.239531 221.025787 
L 67.439531 217.274049 
L 73.639531 219.995266 
L 79.839531 211.12612 
L 86.039531 142.969561 
L 92.239531 126.923387 
L 98.439531 117.292096 
L 104.639531 113.055782 
L 110.839531 108.20612 
L 117.039531 103.945153 
L 123.239531 101.201096 
L 129.439531 93.620879 
L 135.639531 94.558572 
L 141.839531 90.009093 
L 148.039531 90.78446 
L 154.239531 87.185835 
L 160.439531 84.348367 
L 166.639531 82.244361 
L 172.839531 81.265405 
L 179.039531 79.633338 
L 185.239531 79.152524 
L 191.439531 79.330537 
L 197.639531 78.39274 
L 203.839531 76.51435 
L 210.039531 77.73498 
L 216.239531 75.769231 
L 222.439531 75.395992 
L 228.639531 74.912892 
L 234.839531 73.724493 
L 241.039531 73.407109 
L 247.239531 73.448324 
L 253.439531 72.401558 
L 259.639531 71.78951 
L 265.839531 71.800666 
L 272.039531 71.918341 
L 278.239531 71.883077 
L 284.439531 71.932372 
L 290.639531 71.566731 
L 296.839531 71.386161 
L 303.039531 71.930272 
L 309.239531 71.501042 
L 315.439531 71.570032 
L 321.639531 71.252667 
L 327.839531 71.899296 
L 334.039531 71.628154 
L 340.239531 71.525847 
L 346.439531 71.5636 
L 352.639531 71.429658 
L 358.839531 71.870209 
L 365.039531 71.781074 
L 371.239531 71.173814 
L 377.439531 69.970106 
L 383.639531 68.976507 
" style="fill:none;stroke:#348abd;stroke-linecap:round;stroke-width:2;"/>
   </g>
   <g id="line2d_16">
    <path clip-path="url(#p5b67381736)" d="M 48.839531 226.154482 
L 55.039531 226.154482 
L 61.239531 226.154482 
L 67.439531 226.154482 
L 73.639531 226.154482 
L 79.839531 226.154482 
L 86.039531 226.154482 
L 92.239531 226.154482 
L 98.439531 226.154482 
L 104.639531 226.154482 
L 110.839531 226.154482 
L 117.039531 226.154482 
L 123.239531 226.154482 
L 129.439531 226.154482 
L 135.639531 226.154482 
L 141.839531 226.154482 
L 148.039531 226.154482 
L 154.239531 226.154482 
L 160.439531 226.154482 
L 166.639531 226.154482 
L 172.839531 220.721492 
L 179.039531 220.721492 
L 185.239531 220.721492 
L 191.439531 220.721492 
L 197.639531 220.721492 
L 203.839531 220.721492 
L 210.039531 220.721492 
L 216.239531 220.721492 
L 222.439531 220.721492 
L 228.639531 220.721492 
L 234.839531 220.721492 
L 241.039531 220.721492 
L 247.239531 220.721492 
L 253.439531 220.721492 
L 259.639531 220.721492 
L 265.839531 220.721492 
L 272.039531 220.721492 
L 278.239531 220.721492 
L 284.439531 220.721492 
L 290.639531 220.721492 
L 296.839531 215.874531 
L 303.039531 215.874531 
L 309.239531 215.874531 
L 315.439531 215.874531 
L 321.639531 215.874531 
L 327.839531 215.874531 
L 334.039531 215.874531 
L 340.239531 215.874531 
L 346.439531 215.874531 
L 352.639531 215.874531 
L 358.839531 215.874531 
L 365.039531 215.874531 
L 371.239531 215.874531 
L 377.439531 215.874531 
L 383.639531 215.874531 
" style="fill:none;stroke:#988ed5;stroke-linecap:round;stroke-width:2;"/>
   </g>
   <g id="line2d_17">
    <path clip-path="url(#p5b67381736)" d="M 48.839531 177.942105 
L 55.039531 176.524341 
L 61.239531 167.49096 
L 67.439531 171.272631 
L 73.639531 175.561144 
L 79.839531 178.071421 
L 86.039531 69.181023 
L 92.239531 59.03113 
L 98.439531 48.062673 
L 104.639531 44.336036 
L 110.839531 44.490226 
L 117.039531 42.790416 
L 123.239531 40.719879 
L 129.439531 39.480033 
L 135.639531 40.158517 
L 141.839531 38.216726 
L 148.039531 38.636412 
L 154.239531 37.422241 
L 160.439531 37.562196 
L 166.639531 36.102145 
L 172.839531 36.327638 
L 179.039531 35.991671 
L 185.239531 35.906135 
L 191.439531 35.738535 
L 197.639531 35.451085 
L 203.839531 35.304606 
L 210.039531 35.204777 
L 216.239531 34.990423 
L 222.439531 34.480378 
L 228.639531 35.272661 
L 234.839531 35.263932 
L 241.039531 34.884165 
L 247.239531 35.368388 
L 253.439531 35.140834 
L 259.639531 34.854921 
L 265.839531 34.97503 
L 272.039531 35.202773 
L 278.239531 34.72195 
L 284.439531 34.765831 
L 290.639531 35.34279 
L 296.839531 34.820177 
L 303.039531 34.550916 
L 309.239531 34.592484 
L 315.439531 34.673219 
L 321.639531 34.625096 
L 327.839531 34.537087 
L 334.039531 34.549885 
L 340.239531 34.970059 
L 346.439531 34.681599 
L 352.639531 34.936809 
L 358.839531 34.195796 
L 365.039531 34.661103 
L 371.239531 34.726596 
L 377.439531 34.72544 
L 383.639531 34.289577 
" style="fill:none;stroke:#348abd;stroke-dasharray:7.4,3.2;stroke-dashoffset:0;stroke-width:2;"/>
   </g>
   <g id="line2d_18">
    <path clip-path="url(#p5b67381736)" d="M 48.839531 210.039108 
L 55.039531 210.039108 
L 61.239531 210.039108 
L 67.439531 210.039108 
L 73.639531 210.039108 
L 79.839531 210.039108 
L 86.039531 210.039108 
L 92.239531 210.039108 
L 98.439531 210.039108 
L 104.639531 210.039108 
L 110.839531 210.039108 
L 117.039531 210.039108 
L 123.239531 210.039108 
L 129.439531 210.039108 
L 135.639531 210.039108 
L 141.839531 210.039108 
L 148.039531 210.039108 
L 154.239531 210.039108 
L 160.439531 210.039108 
L 166.639531 210.039108 
L 172.839531 183.322462 
L 179.039531 183.322462 
L 185.239531 183.322462 
L 191.439531 183.322462 
L 197.639531 183.322462 
L 203.839531 183.322462 
L 210.039531 183.322462 
L 216.239531 183.322462 
L 222.439531 183.322462 
L 228.639531 183.322462 
L 234.839531 183.322462 
L 241.039531 183.322462 
L 247.239531 183.322462 
L 253.439531 183.322462 
L 259.639531 183.322462 
L 265.839531 183.322462 
L 272.039531 183.322462 
L 278.239531 183.322462 
L 284.439531 183.322462 
L 290.639531 183.322462 
L 296.839531 175.958724 
L 303.039531 175.958724 
L 309.239531 175.958724 
L 315.439531 175.958724 
L 321.639531 175.958724 
L 327.839531 175.958724 
L 334.039531 175.958724 
L 340.239531 175.958724 
L 346.439531 175.958724 
L 352.639531 175.958724 
L 358.839531 175.958724 
L 365.039531 175.958724 
L 371.239531 175.958724 
L 377.439531 175.958724 
L 383.639531 175.958724 
" style="fill:none;stroke:#988ed5;stroke-dasharray:7.4,3.2;stroke-dashoffset:0;stroke-width:2;"/>
   </g>
   <g id="patch_3">
    <path d="M 48.839531 241.277813 
L 48.839531 23.837813 
" style="fill:none;stroke:#ffffff;stroke-linecap:square;stroke-linejoin:miter;"/>
   </g>
   <g id="patch_4">
    <path d="M 383.639531 241.277813 
L 383.639531 23.837813 
" style="fill:none;stroke:#ffffff;stroke-linecap:square;stroke-linejoin:miter;"/>
   </g>
   <g id="patch_5">
    <path d="M 48.839531 241.277813 
L 383.639531 241.277813 
" style="fill:none;stroke:#ffffff;stroke-linecap:square;stroke-linejoin:miter;"/>
   </g>
   <g id="patch_6">
    <path d="M 48.839531 23.837813 
L 383.639531 23.837813 
" style="fill:none;stroke:#ffffff;stroke-linecap:square;stroke-linejoin:miter;"/>
   </g>
   <g id="text_17">
    <!-- Sparse 2D navigation -->
    <defs>
     <path d="M 53.515625 70.515625 
L 53.515625 60.890625 
Q 47.90625 63.578125 42.921875 64.890625 
Q 37.9375 66.21875 33.296875 66.21875 
Q 25.25 66.21875 20.875 63.09375 
Q 16.5 59.96875 16.5 54.203125 
Q 16.5 49.359375 19.40625 46.890625 
Q 22.3125 44.4375 30.421875 42.921875 
L 36.375 41.703125 
Q 47.40625 39.59375 52.65625 34.296875 
Q 57.90625 29 57.90625 20.125 
Q 57.90625 9.515625 50.796875 4.046875 
Q 43.703125 -1.421875 29.984375 -1.421875 
Q 24.8125 -1.421875 18.96875 -0.25 
Q 13.140625 0.921875 6.890625 3.21875 
L 6.890625 13.375 
Q 12.890625 10.015625 18.65625 8.296875 
Q 24.421875 6.59375 29.984375 6.59375 
Q 38.421875 6.59375 43.015625 9.90625 
Q 47.609375 13.234375 47.609375 19.390625 
Q 47.609375 24.75 44.3125 27.78125 
Q 41.015625 30.8125 33.5 32.328125 
L 27.484375 33.5 
Q 16.453125 35.6875 11.515625 40.375 
Q 6.59375 45.0625 6.59375 53.421875 
Q 6.59375 63.09375 13.40625 68.65625 
Q 20.21875 74.21875 32.171875 74.21875 
Q 37.3125 74.21875 42.625 73.28125 
Q 47.953125 72.359375 53.515625 70.515625 
z
" id="DejaVuSans-53"/>
     <path d="M 19.671875 64.796875 
L 19.671875 8.109375 
L 31.59375 8.109375 
Q 46.6875 8.109375 53.6875 14.9375 
Q 60.6875 21.78125 60.6875 36.53125 
Q 60.6875 51.171875 53.6875 57.984375 
Q 46.6875 64.796875 31.59375 64.796875 
z
M 9.8125 72.90625 
L 30.078125 72.90625 
Q 51.265625 72.90625 61.171875 64.09375 
Q 71.09375 55.28125 71.09375 36.53125 
Q 71.09375 17.671875 61.125 8.828125 
Q 51.171875 0 30.078125 0 
L 9.8125 0 
z
" id="DejaVuSans-44"/>
     <path d="M 2.984375 54.6875 
L 12.5 54.6875 
L 29.59375 8.796875 
L 46.6875 54.6875 
L 56.203125 54.6875 
L 35.6875 0 
L 23.484375 0 
z
" id="DejaVuSans-76"/>
     <path d="M 45.40625 27.984375 
Q 45.40625 37.75 41.375 43.109375 
Q 37.359375 48.484375 30.078125 48.484375 
Q 22.859375 48.484375 18.828125 43.109375 
Q 14.796875 37.75 14.796875 27.984375 
Q 14.796875 18.265625 18.828125 12.890625 
Q 22.859375 7.515625 30.078125 7.515625 
Q 37.359375 7.515625 41.375 12.890625 
Q 45.40625 18.265625 45.40625 27.984375 
z
M 54.390625 6.78125 
Q 54.390625 -7.171875 48.1875 -13.984375 
Q 42 -20.796875 29.203125 -20.796875 
Q 24.46875 -20.796875 20.265625 -20.09375 
Q 16.0625 -19.390625 12.109375 -17.921875 
L 12.109375 -9.1875 
Q 16.0625 -11.328125 19.921875 -12.34375 
Q 23.78125 -13.375 27.78125 -13.375 
Q 36.625 -13.375 41.015625 -8.765625 
Q 45.40625 -4.15625 45.40625 5.171875 
L 45.40625 9.625 
Q 42.625 4.78125 38.28125 2.390625 
Q 33.9375 0 27.875 0 
Q 17.828125 0 11.671875 7.65625 
Q 5.515625 15.328125 5.515625 27.984375 
Q 5.515625 40.671875 11.671875 48.328125 
Q 17.828125 56 27.875 56 
Q 33.9375 56 38.28125 53.609375 
Q 42.625 51.21875 45.40625 46.390625 
L 45.40625 54.6875 
L 54.390625 54.6875 
z
" id="DejaVuSans-67"/>
    </defs>
    <g style="fill:#262626;" transform="translate(140.981875 17.837813)scale(0.14 -0.14)">
     <use xlink:href="#DejaVuSans-53"/>
     <use x="63.476562" xlink:href="#DejaVuSans-70"/>
     <use x="126.953125" xlink:href="#DejaVuSans-61"/>
     <use x="188.232422" xlink:href="#DejaVuSans-72"/>
     <use x="229.345703" xlink:href="#DejaVuSans-73"/>
     <use x="281.445312" xlink:href="#DejaVuSans-65"/>
     <use x="342.96875" xlink:href="#DejaVuSans-20"/>
     <use x="374.755859" xlink:href="#DejaVuSans-32"/>
     <use x="438.378906" xlink:href="#DejaVuSans-44"/>
     <use x="515.380859" xlink:href="#DejaVuSans-20"/>
     <use x="547.167969" xlink:href="#DejaVuSans-6e"/>
     <use x="610.546875" xlink:href="#DejaVuSans-61"/>
     <use x="671.826172" xlink:href="#DejaVuSans-76"/>
     <use x="731.005859" xlink:href="#DejaVuSans-69"/>
     <use x="758.789062" xlink:href="#DejaVuSans-67"/>
     <use x="822.265625" xlink:href="#DejaVuSans-61"/>
     <use x="883.544922" xlink:href="#DejaVuSans-74"/>
     <use x="922.753906" xlink:href="#DejaVuSans-69"/>
     <use x="950.537109" xlink:href="#DejaVuSans-6f"/>
     <use x="1011.71875" xlink:href="#DejaVuSans-6e"/>
    </g>
   </g>
   <g id="legend_1">
    <g id="patch_7">
     <path d="M 9.4 311.881813 
L 423.079063 311.881813 
Q 425.279063 311.881813 425.279063 309.681812 
L 425.279063 294.635875 
Q 425.279063 292.435875 423.079063 292.435875 
L 9.4 292.435875 
Q 7.2 292.435875 7.2 294.635875 
L 7.2 309.681812 
Q 7.2 311.881813 9.4 311.881813 
z
" style="fill:#eaeaf2;opacity:0.8;stroke:#cccccc;stroke-linejoin:miter;"/>
    </g>
    <g id="line2d_19">
     <path d="M 11.6 301.344156 
L 33.6 301.344156 
" style="fill:none;stroke:#348abd;stroke-linecap:round;stroke-width:3;"/>
    </g>
    <g id="line2d_20"/>
    <g id="text_18">
     <!-- PEARL (ours) -->
     <defs>
      <path d="M 19.671875 64.796875 
L 19.671875 37.40625 
L 32.078125 37.40625 
Q 38.96875 37.40625 42.71875 40.96875 
Q 46.484375 44.53125 46.484375 51.125 
Q 46.484375 57.671875 42.71875 61.234375 
Q 38.96875 64.796875 32.078125 64.796875 
z
M 9.8125 72.90625 
L 32.078125 72.90625 
Q 44.34375 72.90625 50.609375 67.359375 
Q 56.890625 61.8125 56.890625 51.125 
Q 56.890625 40.328125 50.609375 34.8125 
Q 44.34375 29.296875 32.078125 29.296875 
L 19.671875 29.296875 
L 19.671875 0 
L 9.8125 0 
z
" id="DejaVuSans-50"/>
      <path d="M 9.8125 72.90625 
L 55.90625 72.90625 
L 55.90625 64.59375 
L 19.671875 64.59375 
L 19.671875 43.015625 
L 54.390625 43.015625 
L 54.390625 34.71875 
L 19.671875 34.71875 
L 19.671875 8.296875 
L 56.78125 8.296875 
L 56.78125 0 
L 9.8125 0 
z
" id="DejaVuSans-45"/>
      <path d="M 34.1875 63.1875 
L 20.796875 26.90625 
L 47.609375 26.90625 
z
M 28.609375 72.90625 
L 39.796875 72.90625 
L 67.578125 0 
L 57.328125 0 
L 50.6875 18.703125 
L 17.828125 18.703125 
L 11.1875 0 
L 0.78125 0 
z
" id="DejaVuSans-41"/>
      <path d="M 9.8125 72.90625 
L 19.671875 72.90625 
L 19.671875 8.296875 
L 55.171875 8.296875 
L 55.171875 0 
L 9.8125 0 
z
" id="DejaVuSans-4c"/>
      <path d="M 31 75.875 
Q 24.46875 64.65625 21.28125 53.65625 
Q 18.109375 42.671875 18.109375 31.390625 
Q 18.109375 20.125 21.3125 9.0625 
Q 24.515625 -2 31 -13.1875 
L 23.1875 -13.1875 
Q 15.875 -1.703125 12.234375 9.375 
Q 8.59375 20.453125 8.59375 31.390625 
Q 8.59375 42.28125 12.203125 53.3125 
Q 15.828125 64.359375 23.1875 75.875 
z
" id="DejaVuSans-28"/>
      <path d="M 8.015625 75.875 
L 15.828125 75.875 
Q 23.140625 64.359375 26.78125 53.3125 
Q 30.421875 42.28125 30.421875 31.390625 
Q 30.421875 20.453125 26.78125 9.375 
Q 23.140625 -1.703125 15.828125 -13.1875 
L 8.015625 -13.1875 
Q 14.5 -2 17.703125 9.0625 
Q 20.90625 20.125 20.90625 31.390625 
Q 20.90625 42.671875 17.703125 53.65625 
Q 14.5 64.65625 8.015625 75.875 
z
" id="DejaVuSans-29"/>
     </defs>
     <g style="fill:#262626;" transform="translate(42.4 305.194156)scale(0.11 -0.11)">
      <use xlink:href="#DejaVuSans-50"/>
      <use x="60.302734" xlink:href="#DejaVuSans-45"/>
      <use x="123.486328" xlink:href="#DejaVuSans-41"/>
      <use x="191.894531" xlink:href="#DejaVuSans-52"/>
      <use x="261.376953" xlink:href="#DejaVuSans-4c"/>
      <use x="317.089844" xlink:href="#DejaVuSans-20"/>
      <use x="348.876953" xlink:href="#DejaVuSans-28"/>
      <use x="387.890625" xlink:href="#DejaVuSans-6f"/>
      <use x="449.072266" xlink:href="#DejaVuSans-75"/>
      <use x="512.451172" xlink:href="#DejaVuSans-72"/>
      <use x="553.564453" xlink:href="#DejaVuSans-73"/>
      <use x="605.664062" xlink:href="#DejaVuSans-29"/>
     </g>
    </g>
    <g id="line2d_21">
     <path d="M 135.313906 301.344156 
L 157.313906 301.344156 
" style="fill:none;stroke:#988ed5;stroke-linecap:round;stroke-width:3;"/>
    </g>
    <g id="line2d_22"/>
    <g id="text_19">
     <!-- MAESN -->
     <defs>
      <path d="M 9.8125 72.90625 
L 24.515625 72.90625 
L 43.109375 23.296875 
L 61.8125 72.90625 
L 76.515625 72.90625 
L 76.515625 0 
L 66.890625 0 
L 66.890625 64.015625 
L 48.09375 14.015625 
L 38.1875 14.015625 
L 19.390625 64.015625 
L 19.390625 0 
L 9.8125 0 
z
" id="DejaVuSans-4d"/>
      <path d="M 9.8125 72.90625 
L 23.09375 72.90625 
L 55.421875 11.921875 
L 55.421875 72.90625 
L 64.984375 72.90625 
L 64.984375 0 
L 51.703125 0 
L 19.390625 60.984375 
L 19.390625 0 
L 9.8125 0 
z
" id="DejaVuSans-4e"/>
     </defs>
     <g style="fill:#262626;" transform="translate(166.113906 305.194156)scale(0.11 -0.11)">
      <use xlink:href="#DejaVuSans-4d"/>
      <use x="86.279297" xlink:href="#DejaVuSans-41"/>
      <use x="154.6875" xlink:href="#DejaVuSans-45"/>
      <use x="217.871094" xlink:href="#DejaVuSans-53"/>
      <use x="281.347656" xlink:href="#DejaVuSans-4e"/>
     </g>
    </g>
    <g id="line2d_23">
     <path d="M 227.292813 301.344156 
L 249.292813 301.344156 
" style="fill:none;stroke:#808080;stroke-linecap:round;stroke-width:3;"/>
    </g>
    <g id="line2d_24"/>
    <g id="text_20">
     <!-- radius 0.2 -->
     <defs>
      <path d="M 10.6875 12.40625 
L 21 12.40625 
L 21 0 
L 10.6875 0 
z
" id="DejaVuSans-2e"/>
     </defs>
     <g style="fill:#262626;" transform="translate(258.092813 305.194156)scale(0.11 -0.11)">
      <use xlink:href="#DejaVuSans-72"/>
      <use x="41.113281" xlink:href="#DejaVuSans-61"/>
      <use x="102.392578" xlink:href="#DejaVuSans-64"/>
      <use x="165.869141" xlink:href="#DejaVuSans-69"/>
      <use x="193.652344" xlink:href="#DejaVuSans-75"/>
      <use x="257.03125" xlink:href="#DejaVuSans-73"/>
      <use x="309.130859" xlink:href="#DejaVuSans-20"/>
      <use x="340.917969" xlink:href="#DejaVuSans-30"/>
      <use x="404.541016" xlink:href="#DejaVuSans-2e"/>
      <use x="436.328125" xlink:href="#DejaVuSans-32"/>
     </g>
    </g>
    <g id="line2d_25">
     <path d="M 335.085938 301.344156 
L 357.085938 301.344156 
" style="fill:none;stroke:#808080;stroke-dasharray:11.1,4.8;stroke-dashoffset:0;stroke-width:3;"/>
    </g>
    <g id="line2d_26"/>
    <g id="text_21">
     <!-- radius 0.8 -->
     <g style="fill:#262626;" transform="translate(365.885938 305.194156)scale(0.11 -0.11)">
      <use xlink:href="#DejaVuSans-72"/>
      <use x="41.113281" xlink:href="#DejaVuSans-61"/>
      <use x="102.392578" xlink:href="#DejaVuSans-64"/>
      <use x="165.869141" xlink:href="#DejaVuSans-69"/>
      <use x="193.652344" xlink:href="#DejaVuSans-75"/>
      <use x="257.03125" xlink:href="#DejaVuSans-73"/>
      <use x="309.130859" xlink:href="#DejaVuSans-20"/>
      <use x="340.917969" xlink:href="#DejaVuSans-30"/>
      <use x="404.541016" xlink:href="#DejaVuSans-2e"/>
      <use x="436.328125" xlink:href="#DejaVuSans-38"/>
     </g>
    </g>
   </g>
  </g>
 </g>
 <defs>
  <clipPath id="p5b67381736">
   <rect height="217.44" width="334.8" x="48.839531" y="23.837813"/>
  </clipPath>
 </defs>
</svg>
